{
  "accessors": {
    "accessor_26": {
      "bufferView": "bufferView_1",
      "byteOffset": 0,
      "byteStride": 0,
      "componentType": 5123,
      "count": 14187,
      "max": [
        1426
      ],
      "min": [
        0
      ],
      "type": "SCALAR"
    },
    "accessor_28": {
      "bufferView": "bufferView_0",
      "byteOffset": 0,
      "byteStride": 0,
      "componentType": 5126,
      "count": 2728,
      "max": [
        3.5834412574768066,
        8.992514610290527,
        4.525266647338867
      ],
      "min": [
        -3.5834412574768066,
        -0.051307693123817444,
        -2.1721887588500977
      ],
      "type": "VEC3"
    },
    "accessor_30": {
      "bufferView": "bufferView_0",
      "byteOffset": 32736,
      "byteStride": 0,
      "componentType": 5126,
      "count": 2728,
      "max": [
        0.9999666213989258,
        0.9994753003120422,
        0.999994158744812
      ],
      "min": [
        -0.9999023079872131,
        -0.999781608581543,
        -0.9998831152915955
      ],
      "type": "VEC3"
    },
    "accessor_32": {
      "bufferView": "bufferView_0",
      "byteOffset": 65472,
      "byteStride": 0,
      "componentType": 5126,
      "count": 2728,
      "max": [
        0.9941111207008362,
        0.9870152473449707
      ],
      "min": [
        0.007659733761101961,
        0.009164750576019287
      ],
      "type": "VEC2"
    }
  },
  "animations": {},
  "asset": {
    "generator": "collada2gltf@f8f6279915175e9d2cc525531660ac439c114fac",
    "premultipliedAlpha": true,
    "profile": {
      "api": "WebGL",
      "version": "1.0.2"
    },
    "version": "1.0.1"
  },
  "bufferViews": {
    "bufferView_0": {
      "buffer": "buffer_0",
      "byteLength": 87296,
      "byteOffset": 0,
      "target": 34962
    },
    "bufferView_1": {
      "buffer": "buffer_0",
      "byteLength": 28374,
      "byteOffset": 87296,
      "target": 34963
    }
  },
  "buffers": {
    "buffer_0": {
      "type": "arraybuffer",
      "byteLength": 115670,
      "uri": "data:application/octet-stream;base64,"
    }
  },
  "images": {
    "m0BoxingGloves_Mat-diffuse-image": {
      "name": "m0BoxingGloves_Mat-diffuse-image",
      "uri": "data:image/png;base64,"
    },
    "m0BoxingGloves_Mat-specular-image": {
      "name": "m0BoxingGloves_Mat-specular-image",
      "uri": "data:image/png;base64,"
    }
  },
  "materials": {
    "m0BoxingGloves_Mat-fx": {
      "name": "m0BoxingGloves_Mat",
      "technique": "technique0",
      "values": {
        "ambient": [
          0,
          0,
          0,
          1
        ],
        "diffuse": "texture_m0BoxingGloves_Mat-diffuse-image",
        "emission": [
          0,
          0,
          0,
          1
        ],
        "shininess": 20,
        "specular": "texture_m0BoxingGloves_Mat-specular-image"
      }
    }
  },
  "meshes": {
    "meshId0": {
      "name": "meshId0_name",
      "primitives": [
        {
          "attributes": {
            "NORMAL": "accessor_30",
            "POSITION": "accessor_28",
            "TEXCOORD_0": "accessor_32"
          },
          "indices": "accessor_26",
          "material": "m0BoxingGloves_Mat-fx",
          "mode": 4
        }
      ]
    }
  },
  "nodes": {
    "rootNode": {
      "children": [],
      "meshes": [
        "meshId0"
      ],
      "matrix": [
        1,
        0,
        0,
        0,
        0,
        1,
        0,
        0,
        0,
        0,
        1,
        0,
        0,
        0,
        0,
        1
      ]
    }
  },
  "programs": {
    "program_0": {
      "attributes": [
        "a_normal",
        "a_position",
        "a_texcoord0"
      ],
      "fragmentShader": "BoxingGlove0FS",
      "vertexShader": "BoxingGlove0VS"
    }
  },
  "samplers": {
    "sampler_0": {
      "magFilter": 9729,
      "minFilter": 9729,
      "wrapS": 10497,
      "wrapT": 10497
    }
  },
  "scene": "defaultScene",
  "scenes": {
    "defaultScene": {
      "nodes": [
        "rootNode"
      ]
    }
  },
  "shaders": {
    "BoxingGlove0FS": {
      "type": 35632,
      "uri": "data:text/plain;base64,"
    },
    "BoxingGlove0VS": {
      "type": 35633,
      "uri": "data:text/plain;base64,"
    }
  },
  "skins": {},
  "techniques": {
    "technique0": {
      "attributes": {
        "a_normal": "normal",
        "a_position": "position",
        "a_texcoord0": "texcoord0"
      },
      "parameters": {
        "ambient": {
          "type": 35666
        },
        "diffuse": {
          "type": 35678
        },
        "emission": {
          "type": 35666
        },
        "modelViewMatrix": {
          "semantic": "MODELVIEW",
          "type": 35676
        },
        "normal": {
          "semantic": "NORMAL",
          "type": 35665
        },
        "normalMatrix": {
          "semantic": "MODELVIEWINVERSETRANSPOSE",
          "type": 35675
        },
        "position": {
          "semantic": "POSITION",
          "type": 35665
        },
        "projectionMatrix": {
          "semantic": "PROJECTION",
          "type": 35676
        },
        "shininess": {
          "type": 5126
        },
        "specular": {
          "type": 35678
        },
        "texcoord0": {
          "semantic": "TEXCOORD_0",
          "type": 35664
        }
      },
      "program": "program_0",
      "states": {
        "enable": [
          2929,
          2884
        ],
        "disable": []
      },
      "uniforms": {
        "u_ambient": "ambient",
        "u_diffuse": "diffuse",
        "u_emission": "emission",
        "u_modelViewMatrix": "modelViewMatrix",
        "u_normalMatrix": "normalMatrix",
        "u_projectionMatrix": "projectionMatrix",
        "u_shininess": "shininess",
        "u_specular": "specular"
      }
    }
  },
  "textures": {
    "texture_m0BoxingGloves_Mat-diffuse-image": {
      "format": 6408,
      "internalFormat": 6408,
      "sampler": "sampler_0",
      "source": "m0BoxingGloves_Mat-diffuse-image",
      "target": 3553,
      "type": 5121
    },
    "texture_m0BoxingGloves_Mat-specular-image": {
      "format": 6408,
      "internalFormat": 6408,
      "sampler": "sampler_0",
      "source": "m0BoxingGloves_Mat-specular-image",
      "target": 3553,
      "type": 5121
    }
  },
  "extensionsUsed": [],
  "cameras": {}
}
