{
  "accessors": {
    "accessor_26": {
      "bufferView": "bufferView_1",
      "byteOffset": 0,
      "byteStride": 0,
      "componentType": 5123,
      "count": 29826,
      "max": [
        4091
      ],
      "min": [
        0
      ],
      "type": "SCALAR"
    },
    "accessor_28": {
      "bufferView": "bufferView_0",
      "byteOffset": 0,
      "byteStride": 0,
      "componentType": 5126,
      "count": 8169,
      "max": [
        6.667325019836426,
        16.091411590576172,
        7.678969860076904
      ],
      "min": [
        -5.1373066902160645,
        0.02562844753265381,
        -7.978782653808594
      ],
      "type": "VEC3"
    },
    "accessor_30": {
      "bufferView": "bufferView_0",
      "byteOffset": 98028,
      "byteStride": 0,
      "componentType": 5126,
      "count": 8169,
      "max": [
        1,
        1,
        1
      ],
      "min": [
        -1,
        -1,
        -1
      ],
      "type": "VEC3"
    },
    "accessor_32": {
      "bufferView": "bufferView_0",
      "byteOffset": 196056,
      "byteStride": 0,
      "componentType": 5126,
      "count": 8169,
      "max": [
        0.9915019273757935,
        0.9916361570358276
      ],
      "min": [
        0.007908105850219727,
        0.007941007614135742
      ],
      "type": "VEC2"
    }
  },
  "animations": {},
  "asset": {
    "generator": "collada2gltf@f8f6279915175e9d2cc525531660ac439c114fac",
    "premultipliedAlpha": true,
    "profile": {
      "api": "WebGL",
      "version": "1.0.2"
    },
    "version": "1.0.1"
  },
  "bufferViews": {
    "bufferView_0": {
      "buffer": "buffer_0",
      "byteLength": 261408,
      "byteOffset": 0,
      "target": 34962
    },
    "bufferView_1": {
      "buffer": "buffer_0",
      "byteLength": 59652,
      "byteOffset": 261408,
      "target": 34963
    }
  },
  "buffers": {
    "buffer_0": {
      "type": "arraybuffer",
      "byteLength": 321060,
      "uri": "data:application/octet-stream;base64,"
    }
  },
  "images": {
    "m0mtl_dilapidated_ice_cream_truck-ambient-image": {
      "name": "m0mtl_dilapidated_ice_cream_truck-ambient-image",
      "uri": "data:image/jpeg;base64,"
    },
    "m0mtl_dilapidated_ice_cream_truck-diffuse-image": {
      "name": "m0mtl_dilapidated_ice_cream_truck-diffuse-image",
      "uri": "data:image/jpeg;base64,"
    },
    "m0mtl_dilapidated_ice_cream_truck-emission-image": {
      "name": "m0mtl_dilapidated_ice_cream_truck-emission-image",
      "uri": "data:image/jpeg;base64,"
    },
    "m0mtl_dilapidated_ice_cream_truck-specular-image": {
      "name": "m0mtl_dilapidated_ice_cream_truck-specular-image",
      "uri": "data:image/jpeg;base64,"
    }
  },
  "materials": {
    "m0mtl_dilapidated_ice_cream_truck-fx": {
      "name": "m0mtl_dilapidated_ice_cream_truck",
      "technique": "technique0",
      "values": {
        "ambient": "texture_m0mtl_dilapidated_ice_cream_truck-ambient-image",
        "diffuse": "texture_m0mtl_dilapidated_ice_cream_truck-diffuse-image",
        "emission": "texture_m0mtl_dilapidated_ice_cream_truck-emission-image",
        "shininess": 20,
        "specular": "texture_m0mtl_dilapidated_ice_cream_truck-specular-image"
      }
    }
  },
  "meshes": {
    "meshId0": {
      "name": "meshId0_name",
      "primitives": [
        {
          "attributes": {
            "NORMAL": "accessor_30",
            "POSITION": "accessor_28",
            "TEXCOORD_0": "accessor_32"
          },
          "indices": "accessor_26",
          "material": "m0mtl_dilapidated_ice_cream_truck-fx",
          "mode": 4
        }
      ]
    }
  },
  "nodes": {
    "rootNode": {
      "children": [],
      "meshes": [
        "meshId0"
      ],
      "matrix": [
        1,
        0,
        0,
        0,
        0,
        1,
        0,
        0,
        0,
        0,
        1,
        0,
        0,
        0,
        0,
        1
      ]
    }
  },
  "programs": {
    "program_0": {
      "attributes": [
        "a_normal",
        "a_position",
        "a_texcoord0"
      ],
      "fragmentShader": "IceCreamTruck0FS",
      "vertexShader": "IceCreamTruck0VS"
    }
  },
  "samplers": {
    "sampler_0": {
      "magFilter": 9729,
      "minFilter": 9729,
      "wrapS": 10497,
      "wrapT": 10497
    }
  },
  "scene": "defaultScene",
  "scenes": {
    "defaultScene": {
      "nodes": [
        "rootNode"
      ]
    }
  },
  "shaders": {
    "IceCreamTruck0FS": {
      "type": 35632,
      "uri": "data:text/plain;base64,"
    },
    "IceCreamTruck0VS": {
      "type": 35633,
      "uri": "data:text/plain;base64,"
    }
  },
  "skins": {},
  "techniques": {
    "technique0": {
      "attributes": {
        "a_normal": "normal",
        "a_position": "position",
        "a_texcoord0": "texcoord0"
      },
      "parameters": {
        "ambient": {
          "type": 35678
        },
        "diffuse": {
          "type": 35678
        },
        "emission": {
          "type": 35678
        },
        "modelViewMatrix": {
          "semantic": "MODELVIEW",
          "type": 35676
        },
        "normal": {
          "semantic": "NORMAL",
          "type": 35665
        },
        "normalMatrix": {
          "semantic": "MODELVIEWINVERSETRANSPOSE",
          "type": 35675
        },
        "position": {
          "semantic": "POSITION",
          "type": 35665
        },
        "projectionMatrix": {
          "semantic": "PROJECTION",
          "type": 35676
        },
        "shininess": {
          "type": 5126
        },
        "specular": {
          "type": 35678
        },
        "texcoord0": {
          "semantic": "TEXCOORD_0",
          "type": 35664
        }
      },
      "program": "program_0",
      "states": {
        "enable": [
          2929,
          2884
        ],
        "disable": []
      },
      "uniforms": {
        "u_ambient": "ambient",
        "u_diffuse": "diffuse",
        "u_emission": "emission",
        "u_modelViewMatrix": "modelViewMatrix",
        "u_normalMatrix": "normalMatrix",
        "u_projectionMatrix": "projectionMatrix",
        "u_shininess": "shininess",
        "u_specular": "specular"
      }
    }
  },
  "textures": {
    "texture_m0mtl_dilapidated_ice_cream_truck-ambient-image": {
      "format": 6408,
      "internalFormat": 6408,
      "sampler": "sampler_0",
      "source": "m0mtl_dilapidated_ice_cream_truck-ambient-image",
      "target": 3553,
      "type": 5121
    },
    "texture_m0mtl_dilapidated_ice_cream_truck-diffuse-image": {
      "format": 6408,
      "internalFormat": 6408,
      "sampler": "sampler_0",
      "source": "m0mtl_dilapidated_ice_cream_truck-diffuse-image",
      "target": 3553,
      "type": 5121
    },
    "texture_m0mtl_dilapidated_ice_cream_truck-emission-image": {
      "format": 6408,
      "internalFormat": 6408,
      "sampler": "sampler_0",
      "source": "m0mtl_dilapidated_ice_cream_truck-emission-image",
      "target": 3553,
      "type": 5121
    },
    "texture_m0mtl_dilapidated_ice_cream_truck-specular-image": {
      "format": 6408,
      "internalFormat": 6408,
      "sampler": "sampler_0",
      "source": "m0mtl_dilapidated_ice_cream_truck-specular-image",
      "target": 3553,
      "type": 5121
    }
  },
  "extensionsUsed": [],
  "cameras": {}
}
