{
    "accessors": {
        "accessor_26": {
            "bufferView": "bufferView_34",
            "byteOffset": 0,
            "byteStride": 2,
            "componentType": 5123,
            "count": 14187,
            "max": [
                1426
            ],
            "min": [
                0
            ],
            "type": "SCALAR"
        },
        "accessor_28": {
            "bufferView": "bufferView_35",
            "byteOffset": 0,
            "byteStride": 12,
            "componentType": 5126,
            "count": 2807,
            "max": [
                3.58344,
                8.99251,
                4.52527
            ],
            "min": [
                -3.58344,
                -0.0513077,
                -2.17219
            ],
            "type": "VEC3"
        },
        "accessor_30": {
            "bufferView": "bufferView_35",
            "byteOffset": 33684,
            "byteStride": 12,
            "componentType": 5126,
            "count": 2807,
            "max": [
                0.999967,
                0.999475,
                0.999994
            ],
            "min": [
                -0.999902,
                -0.999782,
                -0.999883
            ],
            "type": "VEC3"
        },
        "accessor_32": {
            "bufferView": "bufferView_35",
            "byteOffset": 67368,
            "byteStride": 8,
            "componentType": 5126,
            "count": 2807,
            "max": [
                0.994111,
                0.987015
            ],
            "min": [
                0.00765973,
                0.00916475
            ],
            "type": "VEC2"
        }
    },
    "animations": {},
    "asset": {
        "generator": "collada2gltf@f8f6279915175e9d2cc525531660ac439c114fac",
        "premultipliedAlpha": true,
        "profile": {
            "api": "WebGL",
            "version": "1.0.2"
        },
        "version": "1.0.1"
    },
    "bufferViews": {
        "bufferView_34": {
            "buffer": "BoxingGlove",
            "byteLength": 28376,
            "byteOffset": 0,
            "target": 34963
        },
        "bufferView_35": {
            "buffer": "BoxingGlove",
            "byteLength": 89824,
            "byteOffset": 28376,
            "target": 34962
        }
    },
    "buffers": {
        "BoxingGlove": {
            "byteLength": 118200,
            "type": "arraybuffer",
            "uri": "BoxingGlove.bin"
        }
    },
    "images": {
        "m0BoxingGloves_Mat-diffuse-image": {
            "name": "m0BoxingGloves_Mat-diffuse-image",
            "uri": "BoxingGlove_texture_0001.png"
        },
        "m0BoxingGloves_Mat-normal-image": {
            "name": "m0BoxingGloves_Mat-normal-image",
            "uri": "BoxingGlove_texture_0003.png"
        },
        "m0BoxingGloves_Mat-specular-image": {
            "name": "m0BoxingGloves_Mat-specular-image",
            "uri": "BoxingGlove_texture_0002.png"
        }
    },
    "materials": {
        "m0BoxingGloves_Mat-fx": {
            "name": "m0BoxingGloves_Mat",
            "technique": "technique0",
            "values": {
                "ambient": [
                    0,
                    0,
                    0,
                    1
                ],
                "diffuse": "texture_m0BoxingGloves_Mat-diffuse-image",
                "emission": [
                    0,
                    0,
                    0,
                    1
                ],
                "shininess": 20,
                "specular": "texture_m0BoxingGloves_Mat-specular-image"
            }
        }
    },
    "meshes": {
        "meshId0": {
            "name": "meshId0_name",
            "primitives": [
                {
                    "attributes": {
                        "NORMAL": "accessor_30",
                        "POSITION": "accessor_28",
                        "TEXCOORD_0": "accessor_32"
                    },
                    "indices": "accessor_26",
                    "material": "m0BoxingGloves_Mat-fx",
                    "mode": 4
                }
            ]
        }
    },
    "nodes": {
        "BoxingGlove": {
            "children": [],
            "meshes": [
                "meshId0"
            ],
            "name": "BoxingGlove"
        }
    },
    "programs": {
        "program_0": {
            "attributes": [
                "a_normal",
                "a_position",
                "a_texcoord0"
            ],
            "fragmentShader": "BoxingGlove0FS",
            "vertexShader": "BoxingGlove0VS"
        }
    },
    "samplers": {
        "sampler_0": {
            "magFilter": 9729,
            "minFilter": 9729,
            "wrapS": 10497,
            "wrapT": 10497
        }
    },
    "scene": "defaultScene",
    "scenes": {
        "defaultScene": {
            "nodes": [
                "BoxingGlove"
            ]
        }
    },
    "shaders": {
        "BoxingGlove0FS": {
            "type": 35632,
            "uri": "BoxingGlove0FS.glsl"
        },
        "BoxingGlove0VS": {
            "type": 35633,
            "uri": "BoxingGlove0VS.glsl"
        }
    },
    "skins": {},
    "techniques": {
        "technique0": {
            "attributes": {
                "a_normal": "normal",
                "a_position": "position",
                "a_texcoord0": "texcoord0"
            },
            "parameters": {
                "ambient": {
                    "type": 35666
                },
                "diffuse": {
                    "type": 35678
                },
                "emission": {
                    "type": 35666
                },
                "modelViewMatrix": {
                    "semantic": "MODELVIEW",
                    "type": 35676
                },
                "normal": {
                    "semantic": "NORMAL",
                    "type": 35665
                },
                "normalMatrix": {
                    "semantic": "MODELVIEWINVERSETRANSPOSE",
                    "type": 35675
                },
                "position": {
                    "semantic": "POSITION",
                    "type": 35665
                },
                "projectionMatrix": {
                    "semantic": "PROJECTION",
                    "type": 35676
                },
                "shininess": {
                    "type": 5126
                },
                "specular": {
                    "type": 35678
                },
                "texcoord0": {
                    "semantic": "TEXCOORD_0",
                    "type": 35664
                }
            },
            "program": "program_0",
            "states": {
                "enable": [
                    2929,
                    2884
                ]
            },
            "uniforms": {
                "u_ambient": "ambient",
                "u_diffuse": "diffuse",
                "u_emission": "emission",
                "u_modelViewMatrix": "modelViewMatrix",
                "u_normalMatrix": "normalMatrix",
                "u_projectionMatrix": "projectionMatrix",
                "u_shininess": "shininess",
                "u_specular": "specular"
            }
        }
    },
    "textures": {
        "texture_m0BoxingGloves_Mat-diffuse-image": {
            "format": 6408,
            "internalFormat": 6408,
            "sampler": "sampler_0",
            "source": "m0BoxingGloves_Mat-diffuse-image",
            "target": 3553,
            "type": 5121
        },
        "texture_m0BoxingGloves_Mat-specular-image": {
            "format": 6408,
            "internalFormat": 6408,
            "sampler": "sampler_0",
            "source": "m0BoxingGloves_Mat-specular-image",
            "target": 3553,
            "type": 5121
        }
    }
}