{
  "accessors": {
    "accessor_26": {
      "bufferView": "bufferView_1",
      "byteOffset": 0,
      "byteStride": 0,
      "componentType": 5123,
      "count": 17142,
      "max": [
        2911
      ],
      "min": [
        0
      ],
      "type": "SCALAR"
    },
    "accessor_28": {
      "bufferView": "bufferView_0",
      "byteOffset": 0,
      "byteStride": 0,
      "componentType": 5126,
      "count": 5258,
      "max": [
        6.5458173751831055,
        22.43893814086914,
        16.62547492980957
      ],
      "min": [
        -6.5458173751831055,
        -1.8489058017730713,
        -17.154497146606445
      ],
      "type": "VEC3"
    },
    "accessor_30": {
      "bufferView": "bufferView_0",
      "byteOffset": 63096,
      "byteStride": 0,
      "componentType": 5126,
      "count": 5258,
      "max": [
        1,
        1,
        0.9999997019767761
      ],
      "min": [
        -1,
        -1,
        -1
      ],
      "type": "VEC3"
    },
    "accessor_32": {
      "bufferView": "bufferView_0",
      "byteOffset": 126192,
      "byteStride": 0,
      "componentType": 5126,
      "count": 5258,
      "max": [
        0.9900977611541748,
        0.9916900992393494
      ],
      "min": [
        0.009003099985420704,
        0.01002955436706543
      ],
      "type": "VEC2"
    },
    "accessor_58": {
      "bufferView": "bufferView_1",
      "byteOffset": 34284,
      "byteStride": 0,
      "componentType": 5123,
      "count": 12855,
      "max": [
        2481
      ],
      "min": [
        0
      ],
      "type": "SCALAR"
    },
    "accessor_60": {
      "bufferView": "bufferView_0",
      "byteOffset": 168256,
      "byteStride": 0,
      "componentType": 5126,
      "count": 3298,
      "max": [
        6.589427947998047,
        10.334320068359375,
        16.605392456054688
      ],
      "min": [
        -6.589433670043945,
        -1.0765259265899658,
        -13.449122428894043
      ],
      "type": "VEC3"
    },
    "accessor_62": {
      "bufferView": "bufferView_0",
      "byteOffset": 207832,
      "byteStride": 0,
      "componentType": 5126,
      "count": 3298,
      "max": [
        1,
        0.9999997019767761,
        1
      ],
      "min": [
        -1,
        -0.9999834299087524,
        -1
      ],
      "type": "VEC3"
    },
    "accessor_64": {
      "bufferView": "bufferView_0",
      "byteOffset": 247408,
      "byteStride": 0,
      "componentType": 5126,
      "count": 3298,
      "max": [
        0.991152822971344,
        0.9912694096565247
      ],
      "min": [
        0.008985638618469238,
        0.009366214275360107
      ],
      "type": "VEC2"
    }
  },
  "animations": {},
  "asset": {
    "generator": "collada2gltf@f8f6279915175e9d2cc525531660ac439c114fac",
    "premultipliedAlpha": true,
    "profile": {
      "api": "WebGL",
      "version": "1.0.2"
    },
    "version": "1.0.1"
  },
  "bufferViews": {
    "bufferView_0": {
      "buffer": "FishingBoat",
      "byteLength": 273792,
      "byteOffset": 0,
      "target": 34962
    },
    "bufferView_1": {
      "buffer": "FishingBoat",
      "byteLength": 59994,
      "byteOffset": 273792,
      "target": 34963
    }
  },
  "buffers": {
    "FishingBoat": {
      "type": "arraybuffer",
      "byteLength": 333786,
      "uri": "data:application/octet-stream;base64,"
    }
  },
  "images": {
    "m0mtl_fishing_boat_02-ambient-image": {
      "name": "m0mtl_fishing_boat_02-ambient-image",
      "uri": "data:image/jpeg;base64,"
    },
    "m0mtl_fishing_boat_02-diffuse-image": {
      "name": "m0mtl_fishing_boat_02-diffuse-image",
      "uri": "data:image/jpeg;base64,"
    },
    "m0mtl_fishing_boat_02-emission-image": {
      "name": "m0mtl_fishing_boat_02-emission-image",
      "uri": "data:image/jpeg;base64,"
    },
    "m0mtl_fishing_boat_02-specular-image": {
      "name": "m0mtl_fishing_boat_02-specular-image",
      "uri": "data:image/jpeg;base64,"
    },
    "m1mtl_fishing_boat_01-ambient-image": {
      "name": "m1mtl_fishing_boat_01-ambient-image",
      "uri": "data:image/jpeg;base64,"
    },
    "m1mtl_fishing_boat_01-diffuse-image": {
      "name": "m1mtl_fishing_boat_01-diffuse-image",
      "uri": "data:image/jpeg;base64,"
    },
    "m1mtl_fishing_boat_01-specular-image": {
      "name": "m1mtl_fishing_boat_01-specular-image",
      "uri": "data:image/jpeg;base64,"
    }
  },
  "materials": {
    "m0mtl_fishing_boat_02-fx": {
      "name": "m0mtl_fishing_boat_02",
      "technique": "technique0",
      "values": {
        "ambient": "texture_m0mtl_fishing_boat_02-ambient-image",
        "diffuse": "texture_m0mtl_fishing_boat_02-diffuse-image",
        "emission": "texture_m0mtl_fishing_boat_02-emission-image",
        "shininess": 20,
        "specular": "texture_m0mtl_fishing_boat_02-specular-image"
      }
    },
    "m1mtl_fishing_boat_01-fx": {
      "name": "m1mtl_fishing_boat_01",
      "technique": "technique1",
      "values": {
        "ambient": "texture_m1mtl_fishing_boat_01-ambient-image",
        "diffuse": "texture_m1mtl_fishing_boat_01-diffuse-image",
        "emission": [
          0,
          0,
          0,
          1
        ],
        "shininess": 20,
        "specular": "texture_m1mtl_fishing_boat_01-specular-image"
      }
    }
  },
  "meshes": {
    "mesh-split": {
      "primitives": [
        {
          "attributes": {
            "NORMAL": "accessor_30",
            "POSITION": "accessor_28",
            "TEXCOORD_0": "accessor_32"
          },
          "indices": "accessor_26",
          "material": "m0mtl_fishing_boat_02-fx",
          "mode": 4
        }
      ]
    },
    "mesh-split_0": {
      "primitives": [
        {
          "attributes": {
            "NORMAL": "accessor_62",
            "POSITION": "accessor_60",
            "TEXCOORD_0": "accessor_64"
          },
          "indices": "accessor_58",
          "material": "m1mtl_fishing_boat_01-fx",
          "mode": 4
        }
      ]
    }
  },
  "nodes": {
    "rootNode": {
      "children": [],
      "meshes": [
        "mesh-split",
        "mesh-split_0"
      ],
      "matrix": [
        1,
        0,
        0,
        0,
        0,
        1,
        0,
        0,
        0,
        0,
        1,
        0,
        0,
        0,
        0,
        1
      ]
    }
  },
  "programs": {
    "program_0": {
      "attributes": [
        "a_normal",
        "a_position",
        "a_texcoord0"
      ],
      "fragmentShader": "FishingBoat0FS",
      "vertexShader": "FishingBoat0VS"
    },
    "program_1": {
      "attributes": [
        "a_normal",
        "a_position",
        "a_texcoord0"
      ],
      "fragmentShader": "FishingBoat1FS",
      "vertexShader": "FishingBoat0VS"
    }
  },
  "samplers": {
    "sampler_0": {
      "magFilter": 9729,
      "minFilter": 9729,
      "wrapS": 10497,
      "wrapT": 10497
    }
  },
  "scene": "defaultScene",
  "scenes": {
    "defaultScene": {
      "nodes": [
        "rootNode"
      ]
    }
  },
  "shaders": {
    "FishingBoat0FS": {
      "type": 35632,
      "uri": "data:text/plain;base64,"
    },
    "FishingBoat0VS": {
      "type": 35633,
      "uri": "data:text/plain;base64,"
    },
    "FishingBoat1FS": {
      "type": 35632,
      "uri": "data:text/plain;base64,"
    }
  },
  "skins": {},
  "techniques": {
    "technique0": {
      "attributes": {
        "a_normal": "normal",
        "a_position": "position",
        "a_texcoord0": "texcoord0"
      },
      "parameters": {
        "ambient": {
          "type": 35678
        },
        "diffuse": {
          "type": 35678
        },
        "emission": {
          "type": 35678
        },
        "modelViewMatrix": {
          "semantic": "MODELVIEW",
          "type": 35676
        },
        "normal": {
          "semantic": "NORMAL",
          "type": 35665
        },
        "normalMatrix": {
          "semantic": "MODELVIEWINVERSETRANSPOSE",
          "type": 35675
        },
        "position": {
          "semantic": "POSITION",
          "type": 35665
        },
        "projectionMatrix": {
          "semantic": "PROJECTION",
          "type": 35676
        },
        "shininess": {
          "type": 5126
        },
        "specular": {
          "type": 35678
        },
        "texcoord0": {
          "semantic": "TEXCOORD_0",
          "type": 35664
        }
      },
      "program": "program_0",
      "states": {
        "enable": [
          2929,
          2884
        ]
      },
      "uniforms": {
        "u_ambient": "ambient",
        "u_diffuse": "diffuse",
        "u_emission": "emission",
        "u_modelViewMatrix": "modelViewMatrix",
        "u_normalMatrix": "normalMatrix",
        "u_projectionMatrix": "projectionMatrix",
        "u_shininess": "shininess",
        "u_specular": "specular"
      }
    },
    "technique1": {
      "attributes": {
        "a_normal": "normal",
        "a_position": "position",
        "a_texcoord0": "texcoord0"
      },
      "parameters": {
        "ambient": {
          "type": 35678
        },
        "diffuse": {
          "type": 35678
        },
        "emission": {
          "type": 35666
        },
        "modelViewMatrix": {
          "semantic": "MODELVIEW",
          "type": 35676
        },
        "normal": {
          "semantic": "NORMAL",
          "type": 35665
        },
        "normalMatrix": {
          "semantic": "MODELVIEWINVERSETRANSPOSE",
          "type": 35675
        },
        "position": {
          "semantic": "POSITION",
          "type": 35665
        },
        "projectionMatrix": {
          "semantic": "PROJECTION",
          "type": 35676
        },
        "shininess": {
          "type": 5126
        },
        "specular": {
          "type": 35678
        },
        "texcoord0": {
          "semantic": "TEXCOORD_0",
          "type": 35664
        }
      },
      "program": "program_1",
      "states": {
        "enable": [
          2929,
          2884
        ]
      },
      "uniforms": {
        "u_ambient": "ambient",
        "u_diffuse": "diffuse",
        "u_emission": "emission",
        "u_modelViewMatrix": "modelViewMatrix",
        "u_normalMatrix": "normalMatrix",
        "u_projectionMatrix": "projectionMatrix",
        "u_shininess": "shininess",
        "u_specular": "specular"
      }
    }
  },
  "textures": {
    "texture_m0mtl_fishing_boat_02-ambient-image": {
      "format": 6408,
      "internalFormat": 6408,
      "sampler": "sampler_0",
      "source": "m0mtl_fishing_boat_02-ambient-image",
      "target": 3553,
      "type": 5121
    },
    "texture_m0mtl_fishing_boat_02-diffuse-image": {
      "format": 6408,
      "internalFormat": 6408,
      "sampler": "sampler_0",
      "source": "m0mtl_fishing_boat_02-diffuse-image",
      "target": 3553,
      "type": 5121
    },
    "texture_m0mtl_fishing_boat_02-emission-image": {
      "format": 6408,
      "internalFormat": 6408,
      "sampler": "sampler_0",
      "source": "m0mtl_fishing_boat_02-emission-image",
      "target": 3553,
      "type": 5121
    },
    "texture_m0mtl_fishing_boat_02-specular-image": {
      "format": 6408,
      "internalFormat": 6408,
      "sampler": "sampler_0",
      "source": "m0mtl_fishing_boat_02-specular-image",
      "target": 3553,
      "type": 5121
    },
    "texture_m1mtl_fishing_boat_01-ambient-image": {
      "format": 6408,
      "internalFormat": 6408,
      "sampler": "sampler_0",
      "source": "m1mtl_fishing_boat_01-ambient-image",
      "target": 3553,
      "type": 5121
    },
    "texture_m1mtl_fishing_boat_01-diffuse-image": {
      "format": 6408,
      "internalFormat": 6408,
      "sampler": "sampler_0",
      "source": "m1mtl_fishing_boat_01-diffuse-image",
      "target": 3553,
      "type": 5121
    },
    "texture_m1mtl_fishing_boat_01-specular-image": {
      "format": 6408,
      "internalFormat": 6408,
      "sampler": "sampler_0",
      "source": "m1mtl_fishing_boat_01-specular-image",
      "target": 3553,
      "type": 5121
    }
  },
  "extensionsUsed": [],
  "cameras": {}
}
